<svg version="1.1" id="Layer_1" xmlns:x="ns_extend;" xmlns:i="ns_ai;" xmlns:graph="ns_graphs;" xmlns="http://www.w3.org/2000/svg" xmlns:xlink="http://www.w3.org/1999/xlink" x="0px" y="0px" viewBox="0 0 1216.3 123" style="enable-background:new 0 0 1216.3 123;" xml:space="preserve">
 <style type="text/css">
  .st0{fill:#FFFFFF;}
 </style>
 <metadata>
  <sfw xmlns="ns_sfw;">
   <slices>
   </slices>
   <sliceSourceBounds bottomLeftOrigin="true" height="123" width="1216.3" x="-952.7" y="-204.5">
   </sliceSourceBounds>
  </sfw>
 </metadata>
 <g>
  <path class="st0" d="M258.3,50.3V0.1h-23.2V123h23.2V71.9h123.8V123h23.2V0.1h-23.2v50.2H258.3z M167.5,22V0.1H31.4
		C10.5,0.1,0,10.8,0,28.2v66.7C0,112.3,10.5,123,31.4,123h136.1v-21.9H23.7V22H167.5z">
  </path>
  <path class="st0" d="M630.4,0.1v101h-122V0.1h-23.2v94.8c0,17.4,10.5,28.1,31.4,28.1h105.5c20.9,0,31.4-10.7,31.4-28.1V0.1H630.4z">
  </path>
  <path class="st0" d="M1135,102.1H1006V71.4H1135V102.1z M1006,21H1135v29.8H1006V21z M1125.4,123c22.8,0,33.4-9.5,33.4-25.8V82.8
		c0-4.6-1.6-6.7-4.9-9.5l-14.8-12.6l14.8-12.6c3.3-2.8,4.9-4.9,4.9-9.5V25.9c0-16.3-10.5-25.8-33.4-25.8H982.8V123H1125.4z
		 M885.7,102.1H756.6V71.4h129.1V102.1z M756.6,21h129.1v29.8H756.6V21z M876,123c22.8,0,33.4-9.5,33.4-25.8V82.8
		c0-4.6-1.6-6.7-4.9-9.5l-14.7-12.6L904.5,48c3.3-2.8,4.9-4.9,4.9-9.5V25.9c0-16.3-10.5-25.8-33.4-25.8H733.5V123H876z">
  </path>
  <path class="st0" d="M1206.2,1.3c2,0.8,3.8,2,5.3,3.6c1.5,1.5,2.7,3.3,3.5,5.3c0.8,2,1.3,4.2,1.3,6.6c0,2.4-0.4,4.6-1.3,6.6
		c-0.9,2-2,3.8-3.5,5.3c-1.5,1.5-3.3,2.7-5.3,3.5c-2,0.8-4.3,1.3-6.6,1.3c-2.4,0-4.6-0.4-6.6-1.3c-2-0.9-3.8-2-5.3-3.5
		c-1.5-1.5-2.7-3.3-3.5-5.3c-0.8-2-1.3-4.2-1.3-6.6c0-2.3,0.4-4.5,1.3-6.6c0.9-2,2-3.8,3.5-5.3c1.5-1.5,3.3-2.7,5.3-3.6
		c2-0.9,4.3-1.3,6.6-1.3C1201.9,0,1204.1,0.4,1206.2,1.3 M1193.9,3.5c-1.7,0.8-3.2,1.8-4.5,3.1c-1.3,1.3-2.2,2.8-3,4.5
		c-0.7,1.7-1.1,3.6-1.1,5.6s0.3,3.9,1.1,5.6c0.7,1.7,1.7,3.3,3,4.5c1.3,1.3,2.7,2.3,4.5,3.1c1.7,0.7,3.6,1.1,5.7,1.1
		c2,0,3.9-0.4,5.6-1.1c1.7-0.8,3.2-1.8,4.5-3.1c1.3-1.3,2.2-2.8,3-4.5c0.7-1.7,1.1-3.6,1.1-5.6s-0.4-3.9-1.1-5.6
		c-0.7-1.7-1.7-3.3-3-4.5c-1.3-1.3-2.8-2.3-4.5-3.1c-1.7-0.7-3.6-1.1-5.6-1.1C1197.5,2.4,1195.6,2.8,1193.9,3.5 M1193.5,26.4V7.1
		h7.4c2.2,0,3.8,0.5,4.8,1.4c1,0.9,1.5,2.2,1.5,4c0,0.8-0.1,1.6-0.4,2.2c-0.3,0.6-0.6,1.2-1.1,1.6c-0.4,0.4-1,0.8-1.6,1
		c-0.6,0.3-1.2,0.5-1.9,0.6l5.8,8.6h-2.8l-5.4-8.6h-4v8.6H1193.5z M1201.1,15.7c0.7-0.1,1.3-0.2,1.9-0.4c0.6-0.2,1-0.5,1.3-1
		c0.3-0.5,0.5-1.1,0.5-1.9c0-0.7-0.1-1.2-0.4-1.7c-0.3-0.4-0.6-0.8-1-1c-0.4-0.3-0.9-0.4-1.5-0.5c-0.5-0.1-1.1-0.1-1.7-0.1h-4.4v6.7
		h3.1C1199.7,15.8,1200.4,15.8,1201.1,15.7">
  </path>
 </g>
</svg>