<?xml version="1.0" encoding="UTF-8"?>
<svg id="Layer_1" xmlns="http://www.w3.org/2000/svg" xmlns:xlink="http://www.w3.org/1999/xlink" version="1.1" viewBox="0 0 336 40">
  <!-- Generator: Adobe Illustrator 29.0.0, SVG Export Plug-In . SVG Version: 2.1.0 Build 186)  -->
  <defs>
    <style>
      .st0 {
        fill: url(#linear-gradient);
      }

      .st1 {
        fill: #fff;
      }
    </style>
    <linearGradient id="linear-gradient" x1="233.1" y1="12.4" x2="252.2" y2="31.6" gradientTransform="translate(0 42) scale(1 -1)" gradientUnits="userSpaceOnUse">
      <stop offset=".2" stop-color="#2ad2c9"/>
      <stop offset=".2" stop-color="#32cac7"/>
      <stop offset=".3" stop-color="#4bb7c3"/>
      <stop offset=".5" stop-color="#7398bd"/>
      <stop offset=".7" stop-color="#aa6db5"/>
      <stop offset=".8" stop-color="#e93cac"/>
    </linearGradient>
  </defs>
  <path class="st1" d="M58.6,23c3.6-1.9,5.6-5.2,5.6-9.2,0-6-4.4-9.6-11.9-9.6h-6c-1.5,0-2.8,1.2-2.8,2.7v29.6c0,0,0,.2.2.2h4.2c0,0,.2,0,.2-.2V10.2c0-1,.8-1.7,1.8-1.7h2.4c4.8,0,7.3,1.8,7.3,5.5s-2.1,5.8-6.8,7.3h-.5c0,.1,9.5,15.2,9.5,15.2,0,0,0,0,.1,0h4.9c.1,0,.2-.1.1-.3l-8.4-13.4h0ZM100.2,4.2h-14.5c-1.5,0-2.8,1.2-2.8,2.7v27c0,1.5,1.2,2.7,2.8,2.7h14.5c0,0,.2,0,.2-.2v-4c0,0,0-.2-.2-.2h-10c-1.5,0-2.8-1.2-2.8-2.7v-7.5h11.1c0,0,.2,0,.2-.2v-4c0,0,0-.2-.2-.2h-11.1v-6.6c0-1.5,1.2-2.7,2.8-2.7h10c0,0,.2,0,.2-.2v-4c0,0,0-.2-.2-.2h0ZM129.7,4.2h-9.3c-1.5,0-2.8,1.2-2.8,2.7v27c0,1.5,1.2,2.7,2.8,2.7h9.3c10.3,0,17-6.4,17-16.4s-6.7-16.1-17-16.1ZM129.7,32.4h-4.8c-1.5,0-2.8-1.2-2.8-2.7V11.2c0-1.5,1.2-2.7,2.8-2.7h4.8c7.5,0,12.3,4.7,12.3,12s-4.7,11.9-12.3,11.9h0ZM168.1,4.2h-1.6c-1.5,0-2.8,1.2-2.8,2.7v29.6c0,0,0,.2.2.2h4.2c0,0,.2,0,.2-.2V4.4c0,0,0-.2-.2-.2ZM324.1,4.2h-6c-1.5,0-2.8,1.2-2.8,2.7v29.7h4.5V10.2c0-1,.8-1.7,1.8-1.7h2.4c4.8,0,7.3,1.8,7.3,5.5s-1.1,4.4-3.4,5.8c-.9.6-2.1,1.1-3.4,1.5h-.5c0,.1,2,3.4,2,3.4,2.4-.3,5.7-2.6,5.7-2.6,2.7-2,4.2-4.8,4.2-8.3,0-6-4.4-9.6-11.9-9.6h0ZM17,8.3c1.4,0,5.2.2,9,2.1.1,0,.2,0,.4,0,.1,0,.2-.2.2-.3l.7-3.1c0-.2,0-.4-.2-.5-2.9-1.5-6.3-2.2-10.2-2.2C7,4.3,0,10.9,0,20.5s7,16.1,17,16.1,7.3-.8,10.2-2.2c.2,0,.3-.3.2-.5l-.7-3.1c0-.1-.1-.2-.2-.3-.1,0-.2,0-.4,0-3.9,1.9-7.6,2.1-9,2.1-7.2,0-12.4-5.1-12.4-12.1s5.2-12.2,12.4-12.2h0ZM202,8.3c1.4,0,5.2.2,9,2.1.1,0,.2,0,.4,0,.1,0,.2-.2.2-.3l.7-3.1c0-.2,0-.4-.2-.5-2.9-1.5-6.3-2.2-10.2-2.2-10,0-17,6.7-17,16.2s7,16.1,17,16.1,7.3-.8,10.2-2.2c.2,0,.3-.3.2-.5l-.7-3.1c0-.1-.1-.2-.2-.3-.1,0-.2,0-.4,0-3.9,1.9-7.6,2.1-9,2.1-7.2,0-12.5-5.1-12.5-12.1s5.2-12.2,12.5-12.2h0ZM291,23c3.6-1.9,5.6-5.2,5.6-9.2,0-6-4.4-9.6-11.9-9.6h-6c-1.5,0-2.8,1.2-2.8,2.7v29.6c0,0,0,.2.2.2h4.2c0,0,.2,0,.2-.2V10.2c0-1,.8-1.7,1.8-1.7h2.4c4.8,0,7.3,1.8,7.3,5.5s-2.1,5.8-6.8,7.3h-.5c0,.1,9.5,15.2,9.5,15.2,0,0,0,0,.1,0h4.9c.1,0,.2-.1.1-.3l-8.4-13.4h0Z"/>
  <path class="st0" d="M233.3,17.2c-.4.4-1,.6-1.6.6h-5.7c-.2,0-.2-.2-.1-.3L242.2,1.4c.3-.3.7-.3.9,0l16.2,16.1c.1.1,0,.3-.1.3h-5.7c-.6,0-1.2-.2-1.6-.6l-6.9-6.9c-1.3-1.3-3.5-1.3-4.8,0l-6.9,6.9ZM233.3,22.8c-.4-.4-1-.6-1.6-.6h-5.7c-.2,0-.2.2-.1.3l16.2,16.1c.3.3.7.3.9,0l16.2-16.1c.1-.1,0-.3-.1-.3h-5.7c-.6,0-1.2.2-1.6.6l-6.9,6.9c-1.3,1.3-3.5,1.3-4.8,0l-6.9-6.9Z"/>
</svg>