<svg fill="none" height="25" viewBox="0 0 113 25" width="113" xmlns="http://www.w3.org/2000/svg">
<path d="M8.00532 23.875H9.67738C10.3606 23.875 10.9154 23.3211 10.9154 22.6388V8.8299C10.9154 8.14767 10.3606 7.59375 9.67738 7.59375H8.00532C7.32208 7.59375 6.76733 8.14767 6.76733 8.8299V22.6388C6.76733 23.3211 7.32208 23.875 8.00532 23.875Z" fill="white"></path>
<path d="M4.21291 23.8718H4.21448C4.67206 23.8718 5.04189 23.5025 5.04189 23.0456V8.41676C5.04189 7.95986 4.67206 7.59058 4.21448 7.59058H4.21291C3.75533 7.59058 3.3855 7.95986 3.3855 8.41676V23.0456C3.3855 23.5025 3.75533 23.8718 4.21291 23.8718Z" fill="white"></path>
<path d="M1.3032 23.8718C1.50065 23.8718 1.66205 23.7122 1.66205 23.5135V7.9489C1.66205 7.75175 1.50065 7.59058 1.3032 7.59058C1.10574 7.59058 0.944336 7.75175 0.944336 7.9489V23.5135C0.944336 23.7106 1.10574 23.8718 1.3032 23.8718Z" fill="white"></path>
<path d="M17.654 7.59204H14.6578C13.5436 7.59204 12.6394 8.4949 12.6394 9.60744V21.8579C12.6394 22.9704 13.5436 23.8733 14.6578 23.8733H17.654C18.7682 23.8733 19.6724 22.9704 19.6724 21.8579V9.60744C19.6724 8.4949 18.7682 7.59204 17.654 7.59204Z" fill="white"></path>
<path d="M33.3871 6.08379C33.3871 4.85077 34.0844 4.21861 35.2879 4.21861C36.0793 4.21861 36.6497 4.2812 37.3784 4.40794V0.896646C36.5228 0.707311 35.4462 0.580566 34.4652 0.580566C31.2355 0.580566 29.2077 2.35186 29.2077 5.79901V6.27313C29.2077 7.12748 28.7642 7.6016 27.9086 7.6016H26.7051V11.4603H29.2077V23.8875H33.3886V11.4603H37.6636V7.6016H33.3886V6.08379H33.3871Z" fill="white"></path>
<path d="M42.6471 0.783936C44.0418 0.783936 45.145 1.88395 45.145 3.20304C45.145 4.52212 44.0418 5.62214 42.6471 5.62214C41.2524 5.62214 40.1821 4.55342 40.1821 3.20304C40.1821 1.85266 41.2524 0.783936 42.6471 0.783936Z" fill="white"></path>
<path d="M44.739 7.60156H40.5894V23.8875H44.739V7.60156Z" fill="white"></path>
<path d="M56.6346 7.25269C54.2809 7.25269 52.6652 8.36992 51.8535 9.62485V7.60006H47.7039V23.886H51.8535V15.4817C51.8629 12.9969 53.2529 11.2678 55.3057 11.2678C57.3586 11.2678 58.5997 12.5322 58.5997 15.3158V23.886H62.7493V14.3989C62.7493 9.24461 59.9944 7.25269 56.6362 7.25269H56.6346Z" fill="white"></path>
<path d="M71.1552 18.0056V11.4603H75.4302V7.60162H71.1552V3.04663H67.4506L67.2673 6.40771C67.2516 7.06804 66.805 7.60162 66.1092 7.60162H64.3149V11.4603H66.9758V18.3546C66.9758 22.3071 69.3515 24.2052 72.5812 24.2052C73.8803 24.2052 74.7344 24.0784 75.7483 23.8578V19.9365C74.8927 20.1259 74.3552 20.19 73.3413 20.19C72.0751 20.19 71.1568 19.6205 71.1568 18.0088V18.0056H71.1552Z" fill="white"></path>
<path d="M85.961 7.25269C81.0529 7.25269 77.3154 10.8892 77.3154 15.7274C77.3154 20.5656 81.0529 24.2333 85.961 24.2333C90.869 24.2333 94.6707 20.5969 94.6707 15.7274C94.6707 10.8579 90.8706 7.25269 85.961 7.25269ZM85.961 20.2182C83.3643 20.2182 81.4948 18.2263 81.4948 15.7274C81.4948 13.2285 83.3628 11.2678 85.961 11.2678C88.5592 11.2678 90.4898 13.2598 90.4898 15.7274C90.4898 18.195 88.5576 20.2182 85.961 20.2182Z" fill="white"></path>
<path d="M104.913 20.2746C102.285 20.2746 100.416 18.2827 100.416 15.7838C100.416 13.2849 102.284 11.3242 104.913 11.3242C106.56 11.3242 107.733 12.0831 108.493 13.3162L112.072 11.1349C110.552 8.76273 108.049 7.30908 104.915 7.30908C99.8799 7.30908 96.238 10.9456 96.238 15.7838C96.238 20.622 99.8799 24.2897 104.915 24.2897C108.051 24.2897 110.552 22.8345 112.072 20.4639L108.493 18.2827C107.733 19.5157 106.56 20.2746 104.913 20.2746Z" fill="white"></path>
</svg>