<?xml version="1.0" encoding="utf-8"?>
<!-- Generator: Adobe Illustrator 22.1.0, SVG Export Plug-In . SVG Version: 6.00 Build 0)  -->
<svg version="1.1" id="Layer_1" xmlns="http://www.w3.org/2000/svg" xmlns:xlink="http://www.w3.org/1999/xlink" x="0px" y="0px"
	 viewBox="0 0 142 22.4" style="enable-background:new 0 0 142 22.4;" xml:space="preserve">
<style type="text/css">
	.st0{fill:#FFFFFF;}
</style>
<g>
	<polygon class="st0" points="0,0.4 4.1,0.4 4.1,11.3 14.6,0.4 19.5,0.4 11.1,9.1 19.6,22 14.9,22 8.4,12 4.1,15.7 4.1,22 0,22 	"/>
	<path class="st0" d="M25.8,0.4h11.4c2.3,0,4.1,0.6,5.3,1.7c1.2,1.2,1.8,2.8,1.8,4.8c0,1.5-0.3,2.7-1,3.8c-0.7,1-1.6,1.8-2.9,2.3
		l4.6,9h-4.4l-4.1-8.3h-6.7V22h-4V0.4L25.8,0.4z M36.9,10.3c1,0,1.8-0.3,2.4-0.9S40.2,8,40.2,7s-0.3-1.8-0.8-2.3
		c-0.6-0.5-1.4-0.8-2.5-0.8h-7v6.4C29.8,10.3,36.9,10.3,36.9,10.3z"/>
	<polygon class="st0" points="51.3,0.4 68.1,0.4 68.1,3.8 55.3,3.8 55.3,9.2 66.7,9.2 66.7,12.7 55.3,12.7 55.3,18.6 68.3,18.6 
		68.3,22 51.3,22 	"/>
	<path class="st0" d="M82.1,0.4h5.1L95.6,22h-4.3l-1.8-4.7h-10L77.8,22h-4.2L82.1,0.4z M88.1,13.9L85.9,8c-0.3-0.8-0.7-1.9-1.1-3.2
		c-0.1-0.2-0.1-0.4-0.2-0.5S84.5,4,84.5,3.9h-0.2l-0.3,1L82.9,8l-2.2,5.9H88.1z"/>
	<polygon class="st0" points="101,0.4 105,0.4 105,18.5 116.5,18.5 116.5,22 101,22 	"/>
	<path class="st0" d="M123.2,19.6c-1.9-1.9-2.8-4.7-2.8-8.4s0.9-6.5,2.8-8.4s4.6-2.8,8-2.8s6.1,0.9,8,2.8s2.8,4.7,2.8,8.4
		s-0.9,6.5-2.8,8.4c-1.9,1.9-4.6,2.8-8,2.8S125.1,21.4,123.2,19.6 M136.3,17.1c1.1-1.2,1.7-3.1,1.7-5.6v-0.7c0-2.5-0.6-4.3-1.7-5.6
		c-1.2-1.3-2.8-1.9-5-1.9s-3.8,0.6-5,1.9s-1.7,3.1-1.7,5.6v0.7c0,2.5,0.6,4.3,1.7,5.6c1.1,1.2,2.8,1.9,5,1.9
		C133.5,19,135.2,18.3,136.3,17.1"/>
</g>
</svg>
