<svg width="68" height="25" viewBox="0 0 68 25" fill="none" xmlns="http://www.w3.org/2000/svg">
<path d="M26.312 8.89791L33.596 17.5709C33.833 17.8528 34.1641 18.0394 34.528 18.0959V13.0549L27.248 4.73291C27.0059 4.45963 26.6738 4.28223 26.312 4.23291V8.89791Z" fill="#03FF94"/>
<path d="M45.978 7.26306C46.6319 7.25239 47.2757 7.42564 47.836 7.76306C48.39 8.10166 48.8433 8.58227 49.149 9.15506C49.4789 9.77128 49.6468 10.4612 49.637 11.1601C49.6472 11.8548 49.4792 12.5407 49.149 13.1521C48.8419 13.7255 48.3849 14.2048 47.8268 14.5389C47.2688 14.8731 46.6305 15.0496 45.98 15.0496C45.3295 15.0496 44.6912 14.8731 44.1332 14.5389C43.5751 14.2048 43.1181 13.7255 42.811 13.1521C42.4862 12.5361 42.3218 11.8483 42.333 11.1521C42.3229 10.4517 42.4875 9.75983 42.812 9.13906C43.1135 8.56323 43.5694 8.08272 44.1285 7.75137C44.6877 7.42003 45.3281 7.25095 45.978 7.26306ZM49.5 5.10206C48.4281 4.4891 47.2127 4.17162 45.978 4.18206C44.7634 4.16502 43.5665 4.47443 42.5123 5.07796C41.4581 5.68149 40.5853 6.557 39.985 7.61306C39.369 8.69327 39.0509 9.91763 39.063 11.1611V22.3181C39.0557 22.5433 39.0953 22.7677 39.1793 22.9769C39.2633 23.186 39.3899 23.3754 39.551 23.5331C39.7861 23.7751 40.0889 23.9405 40.4197 24.0074C40.7505 24.0744 41.0938 24.0398 41.4045 23.9082C41.7153 23.7766 41.979 23.5541 42.1611 23.27C42.3432 22.9859 42.4352 22.6534 42.425 22.3161V16.6911C43.4446 17.5171 44.6935 18.0094 46.0025 18.1014C47.3114 18.1933 48.617 17.8804 49.742 17.2051C50.7292 16.5938 51.5315 15.7254 52.063 14.6931C52.6295 13.6028 52.918 12.3896 52.903 11.1611C52.9176 9.92142 52.6073 8.69956 52.003 7.61706C51.4124 6.56784 50.5484 5.69833 49.503 5.10106" fill="#121212"/>
<path d="M62.775 14.544C62.1985 14.8665 61.549 15.0358 60.8885 15.0358C60.228 15.0358 59.5785 14.8665 59.002 14.544C58.4497 14.2202 57.9993 13.7479 57.702 13.181C57.376 12.559 57.2116 11.8651 57.224 11.163C57.2122 10.4556 57.3772 9.75644 57.704 9.12898C58.0017 8.55964 58.4518 8.08428 59.004 7.75598C59.5805 7.43349 60.23 7.26416 60.8905 7.26416C61.551 7.26416 62.2005 7.43349 62.777 7.75598C63.3272 8.08025 63.7733 8.55485 64.063 9.12398C64.3833 9.75524 64.5447 10.4552 64.533 11.163C64.5445 11.865 64.3831 12.5591 64.063 13.184C63.7711 13.7498 63.3244 14.2221 62.775 14.544ZM66.906 7.55798C66.3259 6.51851 65.4701 5.6593 64.433 5.07498C63.3502 4.47223 62.1281 4.1643 60.889 4.18198C59.6387 4.16304 58.4051 4.47049 57.31 5.07398C56.2687 5.65504 55.4117 6.51718 54.837 7.56198C54.2392 8.66645 53.9358 9.90625 53.956 11.162C53.9378 12.4095 54.2412 13.6407 54.837 14.737C55.4121 15.7822 56.2698 16.6444 57.312 17.225C58.4124 17.8102 59.6397 18.1163 60.886 18.1163C62.1323 18.1163 63.3596 17.8102 64.46 17.225C65.4942 16.6382 66.3449 15.7754 66.917 14.733C67.5109 13.6359 67.8122 12.4043 67.792 11.157C67.8123 9.89988 67.5049 8.65916 66.9 7.55698" fill="#121212"/>
<path d="M18.648 9.64606H12.084C12.2951 8.89924 12.7569 8.24788 13.3918 7.80151C14.0266 7.35514 14.7958 7.14099 15.57 7.19506C15.9644 7.17574 16.3586 7.23619 16.729 7.37279C17.0995 7.50939 17.4386 7.71934 17.726 7.99006C18.1826 8.444 18.501 9.01827 18.644 9.64606M18.928 5.07206C17.9096 4.47945 16.747 4.1804 15.569 4.20806C14.3436 4.19026 13.1355 4.49918 12.069 5.10306C11.0433 5.69328 10.2039 6.55944 9.646 7.60306C9.06107 8.70565 8.7639 9.93805 8.782 11.1861C8.76184 12.441 9.07776 13.6784 9.697 14.7701C10.3017 15.8204 11.1881 16.6808 12.256 17.2541C13.1821 17.7453 14.1996 18.0404 15.2448 18.1207C16.2901 18.2011 17.3407 18.065 18.331 17.7211C19.0919 17.478 19.8053 17.1059 20.44 16.6211C20.616 16.4984 20.7597 16.3351 20.8589 16.145C20.9582 15.9548 21.01 15.7435 21.01 15.5291C20.9913 15.1163 20.8127 14.727 20.512 14.4437C20.2113 14.1603 19.8121 14.0052 19.399 14.0111C19.0131 14.0043 18.6365 14.13 18.332 14.3671C17.9942 14.6097 17.6203 14.7976 17.224 14.9241C16.5559 15.1527 15.8415 15.2119 15.1448 15.0962C14.4482 14.9804 13.7913 14.6935 13.233 14.2611C12.667 13.8075 12.2546 13.1905 12.052 12.4941H20.311C20.5153 12.4995 20.7187 12.4644 20.9094 12.3908C21.1001 12.3171 21.2743 12.2064 21.422 12.0651C21.5683 11.9244 21.6841 11.7551 21.762 11.5678C21.8399 11.3804 21.8784 11.179 21.875 10.9761C21.8964 9.77217 21.6397 8.57958 21.125 7.49106C20.6435 6.4889 19.8813 5.64817 18.931 5.07106" fill="#121212"/>
<path d="M26.312 13.2661V4.22907C26.113 4.19923 25.91 4.20895 25.7147 4.25769C25.5194 4.30642 25.3357 4.3932 25.174 4.51307L23.566 5.70707C23.3745 5.84999 23.219 6.03557 23.1117 6.24907C23.0044 6.46257 22.9484 6.69813 22.948 6.93707L22.933 13.2661H22.924V16.4281C22.9162 16.6552 22.9558 16.8814 23.0403 17.0923C23.1249 17.3033 23.2525 17.4942 23.415 17.6531C23.6521 17.8972 23.9573 18.064 24.2908 18.1317C24.6243 18.1993 24.9705 18.1647 25.2839 18.0323C25.5974 17.8999 25.8635 17.6759 26.0475 17.3896C26.2315 17.1034 26.3247 16.7682 26.315 16.4281L26.312 13.2661Z" fill="#121212"/>
<path d="M34.527 9.05695V18.095C34.726 18.1249 34.929 18.1152 35.1243 18.0665C35.3196 18.0178 35.5034 17.9309 35.665 17.811L37.265 16.616C37.4561 16.4737 37.6115 16.289 37.7189 16.0764C37.8264 15.8638 37.8829 15.6292 37.884 15.391L37.9 9.05695H37.911V5.89495C37.9186 5.6677 37.8786 5.44137 37.7938 5.23043C37.7089 5.0195 37.5809 4.8286 37.418 4.66995C37.181 4.42695 36.8762 4.2611 36.5434 4.19409C36.2106 4.12708 35.8653 4.16201 35.5527 4.29434C35.2401 4.42666 34.9747 4.65021 34.7912 4.93577C34.6077 5.22134 34.5145 5.55563 34.524 5.89495L34.527 9.05695Z" fill="#121212"/>
<path d="M8.842 15.3709C8.7086 15.2159 8.54311 15.0917 8.35698 15.0069C8.17085 14.9222 7.96852 14.8788 7.764 14.8799H6.971C6.79885 14.8804 6.62909 14.8396 6.47585 14.7612C6.32261 14.6827 6.19033 14.5688 6.09 14.4289C5.81151 14.072 5.66966 13.6273 5.69 13.1749V7.17495H7.18C7.59475 7.18929 7.99885 7.04192 8.307 6.76395C8.45458 6.63019 8.57207 6.46662 8.65172 6.28406C8.73136 6.1015 8.77134 5.90411 8.769 5.70495C8.77381 5.49796 8.73458 5.29231 8.65389 5.10164C8.57321 4.91096 8.45292 4.73961 8.301 4.59895C7.99421 4.3228 7.59256 4.1759 7.18 4.18895H5.692V0.708947C5.69431 0.578436 5.66007 0.449881 5.59317 0.337799C5.52627 0.225717 5.42936 0.134575 5.31339 0.0746652C5.19742 0.0147556 5.067 -0.0115343 4.93688 -0.00123547C4.80676 0.00906337 4.6821 0.0555407 4.577 0.132947L4.569 0.140947L2.981 1.32095C2.79117 1.46142 2.63686 1.64438 2.53041 1.85519C2.42397 2.066 2.36835 2.29879 2.368 2.53495V4.18895H1.79C1.37573 4.17459 0.972052 4.32158 0.664 4.59895C0.512728 4.74029 0.393222 4.91216 0.313401 5.10318C0.23358 5.2942 0.195266 5.5 0.201 5.70695C0.197963 5.90602 0.237423 6.10346 0.316746 6.28608C0.39607 6.46869 0.513432 6.63229 0.661 6.76595C0.969149 7.04392 1.37325 7.19129 1.788 7.17695H2.37V13.1769C2.35796 14.0586 2.56153 14.9299 2.963 15.7149C3.34299 16.4553 3.91449 17.0804 4.618 17.5249C5.32804 17.9453 6.14453 18.1513 6.969 18.1179H7.388C7.85577 18.1598 8.32272 18.0293 8.701 17.7509C8.87871 17.6031 9.02107 17.4173 9.11762 17.2072C9.21418 16.9971 9.26248 16.7681 9.259 16.5369C9.27206 16.1095 9.12352 15.6928 8.843 15.3699" fill="#121212"/>
<path d="M27.234 10.002L26.308 8.902V4.229L27.234 10.002Z" fill="#009E5C"/>
<path d="M33.6 11.9939L34.528 13.0539V18.0959L33.6 11.9939Z" fill="#009E5C"/>
</svg>
